<?xml version="1.0" encoding="iso-8859-1"?>
<!-- Generator: Adobe Illustrator 18.0.0, SVG Export Plug-In . SVG Version: 6.00 Build 0)  -->
<!DOCTYPE svg PUBLIC "-//W3C//DTD SVG 1.1//EN" "http://www.w3.org/Graphics/SVG/1.1/DTD/svg11.dtd">
<svg xmlns="http://www.w3.org/2000/svg" xmlns:xlink="http://www.w3.org/1999/xlink" version="1.1" id="Capa_1" x="0px" y="0px" viewBox="0 0 495.741 495.741" style="enable-background:new 0 0 495.741 495.741;" xml:space="preserve" width="512px" height="512px">
<path id="bottle" d="M355.867,412.173l-25.371-164.629c-3.501-22.713,1.125-46.048,13.008-65.673  c8.03-13.187,12.263-28.104,12.263-43.134c0-35.566-23.774-68.231-60.736-83.766V21.963C295.03,9.865,285.179,0,273.063,0h-50.382  c-12.098,0-21.954,9.865-21.954,21.963v33.008c-36.961,15.502-60.736,48.199-60.736,83.766c0,15.012,4.232,29.929,12.23,43.152  c11.901,19.588,16.527,42.892,13.027,65.623l-25.372,164.661c-3.226,20.942,2.832,42.178,16.628,58.266  c13.791,16.087,33.85,25.303,55.054,25.303h72.628c21.198,0,41.263-9.215,55.053-25.303  C353.03,454.351,359.088,433.115,355.867,412.173z M211.901,77.41c8.4-3.335,13.841-11.348,13.841-20.384V46.227h44.273v10.798  c0,9.051,5.44,17.049,13.827,20.384c28.497,11.366,46.914,35.452,46.914,61.327c0,0.064-0.018,0.128-0.018,0.196H165.019  c0-0.068-0.018-0.132-0.018-0.196C165.001,112.843,183.417,88.775,211.901,77.41z" fill="#FFFFFF"/>
<g>
</g>
<g>
</g>
<g>
</g>
<g>
</g>
<g>
</g>
<g>
</g>
<g>
</g>
<g>
</g>
<g>
</g>
<g>
</g>
<g>
</g>
<g>
</g>
<g>
</g>
<g>
</g>
<g>
</g>
</svg>
