<?xml version="1.0" encoding="iso-8859-1"?>
<!-- Generator: Adobe Illustrator 19.0.0, SVG Export Plug-In . SVG Version: 6.00 Build 0)  -->
<svg xmlns="http://www.w3.org/2000/svg" xmlns:xlink="http://www.w3.org/1999/xlink" version="1.1" id="Layer_1" x="0px" y="0px" viewBox="0 0 512 512" style="enable-background:new 0 0 512 512;" xml:space="preserve" width="512px" height="512px">
<g>
	<g>
		<polygon points="396.143,379.421 369.807,379.421 365.164,379.421 184.107,379.421 179.464,379.421 153.128,379.421 127.55,512     421.721,512   " fill="#FFFFFF"/>
	</g>
</g>
<g>
	<g>
		<path d="M406.837,105.266l-98.419-48.432L316.56,0h-83.844l8.137,56.835l-98.418,48.43h-38.061    c-28.655,0-51.968,23.312-51.968,51.967v137.866h30.417V157.233c0-11.882,9.668-21.55,21.551-21.55h28.602l21.139,134.068h25.35    v-0.001h5.444h179.456h5.444h25.35l12.204-77.399l52.233-43.212v-43.874H406.837z" fill="#FFFFFF"/>
	</g>
</g>
<g>
	<g>
		<polygon points="339.39,300.167 209.881,300.167 179.464,300.167 179.464,349.004 209.881,349.004 339.39,349.004     369.807,349.004 369.807,300.167   " fill="#FFFFFF"/>
	</g>
</g>
<g>
</g>
<g>
</g>
<g>
</g>
<g>
</g>
<g>
</g>
<g>
</g>
<g>
</g>
<g>
</g>
<g>
</g>
<g>
</g>
<g>
</g>
<g>
</g>
<g>
</g>
<g>
</g>
<g>
</g>
</svg>
