<?xml version="1.0" encoding="iso-8859-1"?>
<!-- Generator: Adobe Illustrator 16.0.0, SVG Export Plug-In . SVG Version: 6.00 Build 0)  -->
<!DOCTYPE svg PUBLIC "-//W3C//DTD SVG 1.1//EN" "http://www.w3.org/Graphics/SVG/1.1/DTD/svg11.dtd">
<svg xmlns="http://www.w3.org/2000/svg" xmlns:xlink="http://www.w3.org/1999/xlink" version="1.1" id="Capa_1" x="0px" y="0px" width="512px" height="512px" viewBox="0 0 765.001 765.001" style="enable-background:new 0 0 765.001 765.001;" xml:space="preserve">
<g>
	<g>
		<path d="M585.635,695.299v-58.908H179.366v118.604c0,6.133,5.47,10.824,11.533,9.887l386.261-59.695    C582.037,704.432,585.635,700.234,585.635,695.299z" fill="#FFFFFF"/>
		<path d="M382.5,90.738c-8.284,0-15,6.716-15,15v24.463l-248.848,128.43c-21.312,10.999-31.829,34.048-26.169,57.353    c5.659,23.306,25.575,38.964,49.558,38.964h37.324v251.443h406.269V354.948h37.324c23.983,0,43.898-15.658,49.558-38.964    c5.66-23.305-4.856-46.354-26.169-57.353L397.5,130.201v-11.349c26.054-6.688,45.369-30.372,45.369-58.483    C442.87,27.081,415.788,0,382.5,0s-60.369,27.081-60.369,60.369c0,8.284,6.716,15,15,15s15-6.716,15-15    C352.131,43.624,365.755,30,382.5,30s30.369,13.624,30.369,30.369C412.87,77.115,399.247,90.738,382.5,90.738z M643.365,308.905    c-1.883,7.756-8.232,16.043-20.405,16.043h-37.681c-2.406-16.849-16.889-29.805-34.402-29.805H214.125    c-17.514,0-31.996,12.956-34.401,29.805h-37.681c-12.172,0-18.521-8.287-20.405-16.043c-1.884-7.756-0.042-18.032,10.775-23.615    L382.5,156.219l250.089,129.07C643.407,290.873,645.249,301.149,643.365,308.905z" fill="#FFFFFF"/>
	</g>
</g>
<g>
</g>
<g>
</g>
<g>
</g>
<g>
</g>
<g>
</g>
<g>
</g>
<g>
</g>
<g>
</g>
<g>
</g>
<g>
</g>
<g>
</g>
<g>
</g>
<g>
</g>
<g>
</g>
<g>
</g>
</svg>
